<svg fill="none" xmlns="http://www.w3.org/2000/svg" viewBox="0 0 1240 810"><path fill="#159800" d="M0 0h1240v810H0z"/><circle cx="165" cy="405" r="100" stroke="#fff"/><circle cx="1075" cy="405" r="100" stroke="#fff"/><path fill="#159800" stroke="#fff" d="M1015 185h180v440h-180zM45 185h180v440H45z"/><path fill="#fff" d="M619.5 30h1v750h-1z"/><circle cx="620" cy="405" r="100" stroke="#fff"/><circle cx="620" cy="405" r="1.665" fill="#fff"/><path d="M55 30c0 5.523-4.477 10-10 10M1195 40c-5.52 0-10-4.477-10-10M1185 780c0-5.523 4.48-10 10-10M45 770c5.523 0 10 4.477 10 10" stroke="#fff"/><path fill="#fff" fill-opacity=".3" d="M19 365h26v80H19zM1195 365h26v80h-26z"/><path stroke="#fff" d="M45 305h60v200H45zM1135 305h60v200h-60z"/><circle cx="1075" cy="405" r="1.665" fill="#fff"/><circle cx="165" cy="405" r="1.665" fill="#fff"/><path stroke="#fff" d="M45 30h1150v750H45z"/></svg>