<svg width="1240" height="810" viewBox="0 0 1240 810" fill="none" xmlns="http://www.w3.org/2000/svg">
<rect width="1240" height="810" fill="#E5E5E5"/>
<rect width="1240" height="810" fill="#159800"/>
<circle cx="165" cy="405" r="99.5" stroke="white"/>
<circle cx="1075" cy="405" r="100" stroke="white"/>
<rect x="1015.5" y="185.5" width="179" height="439" fill="#159800" stroke="white"/>
<rect x="45" y="185" width="180" height="440" fill="#159800" stroke="white"/>
<rect x="619.5" y="30" width="1" height="750" fill="white"/>
<circle cx="620" cy="405" r="99.5" stroke="white"/>
<circle cx="620.005" cy="405.005" r="1.665" fill="white"/>
<path d="M55 30V30C55 35.5228 50.5228 40 45 40V40" stroke="white"/>
<path d="M1195 40V40C1189.48 40 1185 35.5228 1185 30V30" stroke="white"/>
<path d="M1185 780V780C1185 774.477 1189.48 770 1195 770V770" stroke="white"/>
<path d="M45 770V770C50.5228 770 55 774.477 55 780V780" stroke="white"/>
<rect x="19" y="365" width="26" height="80" fill="white" fill-opacity="0.3"/>
<rect x="1195" y="365" width="26" height="80" fill="white" fill-opacity="0.3"/>
<rect x="45" y="305" width="60" height="200" stroke="white"/>
<rect x="1135.5" y="305.5" width="59" height="199" stroke="white"/>
<circle cx="1075.01" cy="405.005" r="1.665" fill="white"/>
<circle cx="165.005" cy="405.005" r="1.665" fill="white"/>
<rect x="45.5" y="30.5" width="1149" height="749" stroke="white"/>
<rect x="46" y="186" width="178" height="438" fill="black" fill-opacity="0.2"/>
<circle cx="1177.5" cy="405" r="11.5" transform="rotate(-180 1177.5 405)" fill="#464646" stroke="white" stroke-width="2"/>
<circle cx="64" cy="405" r="12" fill="#464646" stroke="white" stroke-width="2"/>
</svg>
